<svg width="1224" height="1223" xmlns="http://www.w3.org/2000/svg" xmlns:xlink="http://www.w3.org/1999/xlink" xml:space="preserve" overflow="hidden"><defs><clipPath id="clip0"><rect x="1588" y="626" width="1224" height="1223"/></clipPath></defs><g clip-path="url(#clip0)" transform="translate(-1588 -626)"><path d="M1588 1237.5C1588 899.778 1862 626 2200 626 2538 626 2812 899.778 2812 1237.5 2812 1575.22 2538 1849 2200 1849 1862 1849 1588 1575.22 1588 1237.5Z" fill="#009FDA" fill-rule="evenodd"/><path d="M1855 1195.12C1855 1330.16 1959.27 1448.09 2108.5 1481.85L2108.5 1439.6 2193 1533.5 2108.5 1608.6 2108.5 1566.35C1959.27 1532.59 1855 1414.66 1855 1279.62Z" fill="#003591" fill-rule="evenodd"/><path d="M2193 983.5C2024.96 983.5 1882.43 1091.66 1858.46 1237.37 1831.82 1075.5 1960.01 925.363 2144.78 902.029 2160.75 900.012 2176.86 899 2193 899Z" fill="#002B75" fill-rule="evenodd"/><path d="M2535 1279.88C2535 1144.84 2430.73 1026.91 2281.5 993.153L2281.5 1035.4 2197 941.5 2281.5 866.403 2281.5 908.653C2430.73 942.412 2535 1060.34 2535 1195.38Z" fill="#3F9C35" fill-rule="evenodd"/><path d="M2197 1491.5C2365.04 1491.5 2507.57 1383.34 2531.54 1237.63 2558.18 1399.5 2429.99 1549.64 2245.22 1572.97 2229.25 1574.99 2213.14 1576 2197 1576Z" fill="#337D2B" fill-rule="evenodd"/></g></svg>